<svg width="387" height="387" viewBox="0 0 387 387" fill="none" xmlns="http://www.w3.org/2000/svg">
<path d="M83.54 0.0500488C96.27 2.89005 105.21 11.3501 113.91 20.2901C128.42 35.2101 143.4 49.6801 157.59 64.9001C170.59 78.8001 170.51 99.32 157.72 113.42C148.3 123.8 138.17 133.56 128.19 143.42C126.13 145.42 125.5 146.81 126.89 149.71C135.05 166.71 146.28 181.56 158.61 195.65C176.44 216.03 196.24 234.23 219.07 248.94C224.73 252.6 230.88 255.51 236.68 258.94C238.77 260.18 239.62 258.86 240.74 257.73C249.173 249.277 257.61 240.85 266.05 232.45C272.55 225.99 279.79 220.76 289.05 219.07C301.78 216.75 312.68 220.68 321.69 229.49C338.64 246.06 355.48 262.75 372.01 279.72C389.28 297.45 389.01 318.92 371.56 337.15C361.94 347.21 352.197 357.147 342.33 366.96C327.12 382.15 308.42 386.85 287.54 384.96C254.12 381.96 224.27 368.58 195.4 352.75C156.406 331.377 121.239 303.666 91.34 270.75C65.14 242 42.34 210.82 25.2 175.75C15.2 155.36 6.63003 134.4 2.74003 111.89C-0.159967 95.09 -1.25997 78.1401 6.02003 62.0701C8.75253 55.8944 12.4262 50.1798 16.91 45.1301C27.24 33.8601 38.24 23.2 49.14 12.47C55.5489 6.27581 63.5478 1.97702 72.25 0.0500488H83.54ZM290.54 365.81C307.38 366.12 318.06 363.14 326.48 355.01C337.57 344.3 348.32 333.22 358.81 321.92C367.22 312.85 367.21 303.41 358.57 294.53C341.87 277.36 324.87 260.48 307.75 243.73C300.63 236.73 291.75 236.78 283.94 242.99C282.288 244.339 280.709 245.774 279.21 247.29C269.88 256.58 260.6 265.93 251.21 275.19C245.29 281.06 238.89 282.42 231.68 278.77C223.801 274.91 216.125 270.651 208.68 266.01C181.42 248.53 158.2 226.51 137.57 201.66C125.55 187.05 114.86 171.47 107.15 154.05C103.23 145.17 104.27 139.14 111.31 132.35C113.57 130.18 115.96 128.13 118.17 125.91C126.17 117.83 134.48 109.91 142.17 101.5C149.29 93.6801 149.25 84.5 141.86 76.89C124.8 59.38 107.43 42.16 89.98 25.03C87.4785 22.7735 84.465 21.1604 81.2 20.33C73.36 18.19 67.37 22.22 62.1 27.39C52.7 36.61 43.16 45.72 34.27 55.39C29.8411 60.1264 26.2378 65.5719 23.61 71.5C18.43 83.72 19.78 96.6301 22.3 109.24C27.37 134.63 37.44 158.24 50.01 180.68C72.2406 220.367 100.973 256.042 135.01 286.22C167.047 315.021 203.849 338.03 243.77 354.22C260.42 360.88 277.7 365.33 290.58 365.76L290.54 365.81Z" fill="black"/>
</svg>
