<svg width="384" height="384" viewBox="0 0 384 384" fill="none" xmlns="http://www.w3.org/2000/svg">
<path d="M83.86 107.94C75.78 107.94 68.18 107.94 60.59 107.94C53.22 107.94 47.97 102.94 47.92 96.1C47.87 89 53.05 84 60.66 84C82.8733 84 105.087 84 127.3 84H131.78V61.69C131.78 45.86 141.65 35.96 157.41 35.96C180.49 35.96 203.577 35.96 226.67 35.96C241.4 35.96 251.53 46.14 251.56 60.96C251.56 68.45 251.56 75.96 251.56 83.96H255.66C278.247 83.96 300.833 83.96 323.42 83.96C326.311 83.9408 329.112 84.9662 331.308 86.8476C333.504 88.729 334.946 91.3399 335.37 94.2C336.12 100.4 332.37 106.27 326.44 107.54C323.57 108.15 320.49 107.88 317.51 107.91C311.66 107.91 305.82 107.91 299.51 107.91V112.5C299.51 178.633 299.51 244.763 299.51 310.89C299.51 329.96 287.51 344.35 268.8 347.61C266.814 347.897 264.806 348.007 262.8 347.94C215.38 347.94 167.96 347.94 120.54 347.94C99.54 347.94 83.88 332.27 83.87 311.26C83.87 245.133 83.87 179.003 83.87 112.87L83.86 107.94ZM107.79 108.08V112.21C107.79 177.95 107.79 243.69 107.79 309.43C107.79 319.48 112.34 324 122.47 324H261C271.08 324 275.59 319.48 275.59 309.34V108.08H107.79ZM227.31 83.88V60.18H156V83.88H227.31Z" fill="black"/>
<path d="M179.68 216.19C179.68 231.803 179.68 247.41 179.68 263.01C179.68 270.66 174.79 275.94 167.77 275.96C160.75 275.98 155.77 270.68 155.77 263.12C155.77 231.66 155.77 200.197 155.77 168.73C155.77 161.13 160.77 155.93 167.85 155.98C174.74 155.98 179.68 161.26 179.69 168.62C179.703 184.48 179.7 200.337 179.68 216.19Z" fill="black"/>
<path d="M203.67 215.74C203.67 200.127 203.67 184.52 203.67 168.92C203.67 161.25 208.53 156 215.57 155.98C222.61 155.96 227.57 161.21 227.57 168.81C227.57 200.27 227.57 231.733 227.57 263.2C227.57 270.77 222.57 276.01 215.48 275.96C208.64 275.96 203.67 270.64 203.65 263.31C203.643 247.45 203.65 231.593 203.67 215.74Z" fill="black"/>
</svg>
