<svg width="512" height="512" viewBox="0 0 512 512" fill="none" xmlns="http://www.w3.org/2000/svg">
<path d="M512 397C509.29 402 507.21 407.59 503.68 412C500.677 415.552 496.853 418.319 492.54 420.06C459.28 433.72 424.54 441.38 388.94 446.16C354.15 450.84 320.66 444.76 287.28 436.51C255.51 428.66 223.84 420.44 192.1 412.51C160.36 404.58 128.62 404.34 96.45 408.57C72.544 411.633 48.8848 416.385 25.65 422.79C22.25 423.79 21.33 425.25 21.35 428.65C21.5 451.65 21.35 474.65 21.51 497.65C21.57 503.94 20 509 14 512H0V0H14C19.7 2.92 21.65 7.63999 21.51 13.93C21.23 25.93 21.43 37.93 21.43 49.93V59.73C35.91 56.56 49.62 53.27 63.43 50.59C89.4005 45.3846 115.823 42.7652 142.31 42.77C164.58 42.9 186.31 47.41 207.79 52.65C244 61.46 280 70.8 316.16 79.56C341.52 85.7 367.16 86.4 393.04 82.77C419.059 79.1076 444.671 72.9801 469.53 64.47C476.832 61.8652 484.835 62.0299 492.023 64.9328C499.212 67.8358 505.085 73.2752 508.53 80.22C509.93 83.02 510.84 86.07 511.98 89L512 397ZM21.79 401.12C23.41 400.84 24.39 400.74 25.32 400.48C57.8116 391.833 91.0815 386.433 124.64 384.36C152.41 382.52 179.42 387.1 206.16 393.61C239.1 401.61 271.84 410.39 304.76 418.45C323.85 423.12 343.22 427.1 362.96 426.36C403.16 424.83 442.05 416.43 479.68 402.19C489.44 398.5 490.56 396.91 490.56 386.37C490.56 339.203 490.56 292.037 490.56 244.87C490.56 196.2 490.33 147.53 490.74 98.87C490.84 87.59 484.23 82.08 472.9 85.65C452.996 92.0924 432.718 97.3187 412.18 101.3C394.27 104.61 375.79 106.67 357.62 106.3C340.15 105.96 322.49 102.95 305.37 99.09C272.31 91.63 239.61 82.65 206.71 74.51C184.4 68.99 161.89 63.72 138.8 64.15C100.71 64.85 63.3 70.81 26.57 81.03C22.99 82.03 21.66 83.55 21.67 87.49C21.7967 190.157 21.8333 292.823 21.78 395.49L21.79 401.12Z" fill="black"/>
<path d="M256 224C256 203.167 256 182.34 256 161.52C256 154.09 260.42 149.1 266.76 149.17C272.84 149.24 277.35 154.1 277.36 161.27C277.44 203.09 277.44 244.91 277.36 286.73C277.36 293.93 272.85 298.73 266.76 298.83C260.43 298.91 256.01 293.89 256 286.48C256 265.647 256 244.82 256 224Z" fill="black"/>
<path d="M266.6 352C264.482 351.997 262.385 351.57 260.434 350.746C258.483 349.921 256.716 348.716 255.237 347.199C253.757 345.683 252.596 343.887 251.82 341.915C251.045 339.944 250.671 337.838 250.72 335.72C250.716 333.644 251.124 331.587 251.921 329.669C252.717 327.752 253.887 326.011 255.361 324.549C256.836 323.087 258.586 321.932 260.51 321.151C262.434 320.37 264.494 319.979 266.57 320C270.813 320 274.883 321.686 277.884 324.686C280.884 327.687 282.57 331.757 282.57 336C282.57 340.244 280.884 344.313 277.884 347.314C274.883 350.314 270.813 352 266.57 352H266.6Z" fill="black"/>
</svg>
