<svg width="53" height="53" viewBox="0 0 384 384" fill="none" xmlns="http://www.w3.org/2000/svg">
<path d="M65.8699 384C65.2808 383.63 64.6697 383.296 64.0399 383C56.0399 379.85 51.7799 373.94 51.0399 365.42C50.8999 363.81 50.97 362.18 50.97 360.55C50.97 248.93 50.9233 137.313 50.83 25.7C50.83 13.62 53.83 4.47 65.83 0H264.23C275.377 11.04 286.52 22.0867 297.66 33.14C307.92 43.35 318.07 53.68 328.38 63.84C329.658 65.0157 330.67 66.4511 331.348 68.0499C332.025 69.6487 332.354 71.374 332.31 73.11C332.263 169.683 332.247 266.253 332.26 362.82C332.26 373.41 327.99 379.53 318.12 383.29C317.83 383.4 317.63 383.76 317.38 384H65.8699ZM255.36 12.78H74.11C65.72 12.78 63.96 14.51 63.96 22.78C63.96 135.64 63.96 248.507 63.96 361.38C63.96 369.38 65.82 371.21 73.91 371.21H309.3C317.44 371.21 319.3 369.4 319.3 361.42C319.3 268.053 319.3 174.683 319.3 81.31V76.93H314.74C302.14 76.93 289.54 76.98 276.94 76.93C263.2 76.85 255.4 68.93 255.36 55.24V12.78ZM268.5 23.16C268.5 34.79 268.39 46.26 268.55 57.73C268.61 61.67 271.04 63.79 275.12 63.82C286.12 63.9 297.04 63.82 308 63.82C308.306 63.7922 308.605 63.7074 308.88 63.57L268.5 23.16Z" fill="black"/>
<path d="M159.77 198.26V185.69H287.17V198.26H159.77Z" fill="black"/>
<path d="M159.76 134.08V121.82H287.11V134.08H159.76Z" fill="black"/>
<path d="M287.25 249.84V262.26H159.81V249.84H287.25Z" fill="black"/>
<path d="M159.75 326.09V313.81H287.13V326.09H159.75Z" fill="black"/>
<path d="M115 147.16C111.203 147.178 107.487 146.069 104.32 143.974C101.154 141.879 98.6806 138.892 97.2126 135.39C95.7446 131.889 95.3482 128.031 96.0736 124.304C96.799 120.577 98.6136 117.149 101.288 114.454C103.962 111.759 107.375 109.918 111.096 109.163C114.817 108.409 118.678 108.775 122.191 110.215C125.704 111.656 128.711 114.106 130.83 117.256C132.95 120.406 134.088 124.113 134.1 127.91C134.124 130.432 133.647 132.934 132.698 135.27C131.748 137.607 130.344 139.731 128.568 141.522C126.792 143.312 124.678 144.732 122.349 145.7C120.02 146.668 117.522 147.164 115 147.16V147.16ZM115.16 134.26C116.407 134.229 117.616 133.827 118.634 133.106C119.652 132.385 120.432 131.378 120.875 130.212C121.318 129.046 121.403 127.774 121.121 126.559C120.838 125.345 120.2 124.241 119.288 123.391C118.376 122.54 117.232 121.979 116 121.782C114.769 121.584 113.506 121.757 112.374 122.279C111.241 122.802 110.29 123.649 109.641 124.715C108.992 125.78 108.675 127.014 108.73 128.26C108.866 129.875 109.595 131.382 110.777 132.49C111.959 133.598 113.51 134.229 115.13 134.26H115.16Z" fill="black"/>
<path d="M115 236.84C117.556 236.792 120.096 237.256 122.47 238.204C124.844 239.151 127.005 240.564 128.826 242.358C130.647 244.152 132.091 246.292 133.073 248.653C134.055 251.013 134.556 253.545 134.546 256.102C134.536 258.658 134.016 261.187 133.015 263.539C132.014 265.891 130.554 268.02 128.719 269.8C126.884 271.58 124.712 272.976 122.33 273.905C119.949 274.834 117.405 275.277 114.85 275.21C109.837 275.078 105.075 272.988 101.583 269.389C98.0912 265.79 96.147 260.966 96.1667 255.952C96.1863 250.937 98.1681 246.129 101.688 242.557C105.208 238.985 109.986 236.933 115 236.84V236.84ZM114.88 262.3C116.124 262.326 117.348 261.981 118.396 261.31C119.444 260.639 120.269 259.671 120.767 258.53C121.264 257.39 121.411 256.127 121.189 254.902C120.967 253.677 120.386 252.546 119.521 251.652C118.655 250.758 117.543 250.142 116.326 249.881C115.109 249.62 113.842 249.727 112.686 250.187C111.53 250.648 110.536 251.441 109.832 252.467C109.128 253.493 108.744 254.706 108.73 255.95C108.778 257.576 109.429 259.127 110.556 260.3C111.684 261.474 113.207 262.187 114.83 262.3H114.88Z" fill="black"/>
<path d="M134.06 320.05C134.041 322.56 133.528 325.041 132.55 327.352C131.572 329.663 130.148 331.759 128.36 333.52C126.572 335.281 124.455 336.673 122.129 337.616C119.803 338.559 117.315 339.034 114.805 339.015C112.295 338.996 109.814 338.483 107.503 337.505C105.192 336.527 103.096 335.103 101.335 333.315C99.5736 331.527 98.182 329.41 97.2392 327.084C96.2964 324.758 95.821 322.27 95.84 319.76C95.8591 317.25 96.3722 314.769 97.3502 312.458C98.3281 310.147 99.7518 308.051 101.54 306.29C103.328 304.529 105.445 303.137 107.771 302.194C110.097 301.251 112.585 300.776 115.095 300.795C117.605 300.814 120.086 301.327 122.397 302.305C124.708 303.283 126.804 304.707 128.565 306.495C130.326 308.283 131.718 310.4 132.661 312.726C133.604 315.052 134.079 317.54 134.06 320.05ZM114.81 326.26C115.655 326.302 116.5 326.174 117.294 325.882C118.088 325.59 118.816 325.141 119.432 324.561C120.049 323.982 120.542 323.284 120.883 322.509C121.223 321.734 121.404 320.899 121.414 320.053C121.424 319.207 121.263 318.367 120.941 317.585C120.619 316.802 120.143 316.093 119.54 315.499C118.938 314.905 118.222 314.438 117.435 314.127C116.648 313.817 115.806 313.668 114.96 313.69C113.33 313.779 111.789 314.462 110.629 315.61C109.468 316.758 108.768 318.291 108.66 319.92C108.716 321.551 109.377 323.104 110.513 324.275C111.65 325.447 113.181 326.154 114.81 326.26V326.26Z" fill="black"/>
<path d="M134.06 192.14C134 202.73 125.12 211.54 114.74 211.3C110.915 211.298 107.177 210.16 103.999 208.03C100.822 205.9 98.3486 202.875 96.8931 199.338C95.4376 195.8 95.0655 191.91 95.824 188.161C96.5824 184.412 98.4372 180.973 101.153 178.279C103.869 175.586 107.324 173.759 111.079 173.032C114.835 172.305 118.721 172.709 122.246 174.194C125.772 175.679 128.776 178.177 130.88 181.372C132.983 184.567 134.09 188.315 134.06 192.14V192.14ZM115.06 198.14C116.273 198.098 117.446 197.698 118.432 196.991C119.419 196.284 120.173 195.301 120.602 194.165C121.031 193.03 121.114 191.793 120.841 190.611C120.568 189.428 119.951 188.353 119.068 187.52C118.186 186.687 117.076 186.134 115.88 185.931C114.684 185.727 113.454 185.882 112.345 186.376C111.237 186.87 110.299 187.681 109.65 188.706C109.002 189.732 108.671 190.927 108.7 192.14C108.721 192.952 108.902 193.752 109.232 194.494C109.563 195.236 110.037 195.905 110.627 196.464C111.217 197.022 111.911 197.459 112.67 197.748C113.429 198.037 114.238 198.174 115.05 198.15L115.06 198.14Z" fill="black"/>
</svg>
